<svg width="24" height="24" viewBox="0 0 24 24" fill="none" xmlns="http://www.w3.org/2000/svg">
<path d="M6.57812 20V4H12.7031C13.8594 4 14.8203 4.18229 15.5859 4.54687C16.3568 4.90625 16.9323 5.39844 17.3125 6.02344C17.6979 6.64844 17.8906 7.35677 17.8906 8.14844C17.8906 8.79948 17.7656 9.35677 17.5156 9.82031C17.2656 10.2786 16.9297 10.651 16.5078 10.9375C16.0859 11.224 15.6146 11.4297 15.0938 11.5547V11.7109C15.6615 11.7422 16.2057 11.9167 16.7266 12.2344C17.2526 12.5469 17.6823 12.9896 18.0156 13.5625C18.349 14.1354 18.5156 14.8281 18.5156 15.6406C18.5156 16.4687 18.3151 17.2135 17.9141 17.875C17.513 18.5312 16.9089 19.0495 16.1016 19.4297C15.2943 19.8099 14.2786 20 13.0547 20H6.57812ZM9.47656 17.5781H12.5938C13.6458 17.5781 14.4036 17.3776 14.8672 16.9766C15.3359 16.5703 15.5703 16.0495 15.5703 15.4141C15.5703 14.9401 15.4531 14.513 15.2188 14.1328C14.9844 13.7474 14.651 13.4453 14.2188 13.2266C13.7865 13.0026 13.2708 12.8906 12.6719 12.8906H9.47656V17.5781ZM9.47656 10.8047H12.3438C12.8438 10.8047 13.2943 10.7135 13.6953 10.5312C14.0964 10.3437 14.4115 10.0807 14.6406 9.74219C14.875 9.39844 14.9922 8.99219 14.9922 8.52344C14.9922 7.90365 14.7734 7.39323 14.3359 6.99219C13.9036 6.59114 13.2604 6.39062 12.4063 6.39062H9.47656V10.8047Z" fill="black"/>
</svg>
