<svg width="24" height="24" viewBox="0 0 24 24" fill="none" xmlns="http://www.w3.org/2000/svg">
<g clip-path="url(#clip0_50_36)">
<path d="M19.1496 3.92524e-07H4.84739C4.21075 -0.000255869 3.5803 0.124966 2.99207 0.36851C2.40385 0.612055 1.86937 0.969146 1.4192 1.41938C0.969025 1.8696 0.611978 2.40415 0.368464 2.99245C0.124951 3.58075 -0.000255837 4.21128 3.92475e-07 4.848V19.155C5.54663e-05 19.7915 0.125496 20.4217 0.369157 21.0097C0.612818 21.5977 0.969924 22.1319 1.42007 22.5819C1.87022 23.0318 2.4046 23.3886 2.99267 23.6319C3.58074 23.8753 4.21098 24.0003 4.84739 24H19.1526C20.4382 24 21.6712 23.4892 22.5802 22.5801C23.4893 21.6709 24 20.4378 24 19.152V4.848C23.9993 3.56192 23.488 2.32874 22.5784 1.41962C21.6689 0.510506 20.4355 -0.00012705 19.1496 3.92524e-07Z" fill="url(#paint0_linear_50_36)"/>
<path d="M11.8964 5.51404L12.3824 4.67404C12.4541 4.54955 12.5496 4.4404 12.6634 4.35282C12.7773 4.26524 12.9073 4.20095 13.046 4.16362C13.1847 4.1263 13.3294 4.11666 13.4719 4.13526C13.6143 4.15386 13.7517 4.20034 13.8762 4.27204C14.0007 4.34374 14.1098 4.43926 14.1974 4.55315C14.2849 4.66703 14.3492 4.79705 14.3865 4.93579C14.4239 5.07452 14.4335 5.21924 14.4149 5.3617C14.3963 5.50415 14.3498 5.64155 14.2781 5.76604L9.59571 13.872H12.9823C14.0801 13.872 14.6951 15.162 14.2181 16.056H4.28937C3.99979 16.056 3.72207 15.941 3.51731 15.7362C3.31255 15.5314 3.19751 15.2537 3.19751 14.964C3.19751 14.6744 3.31255 14.3967 3.51731 14.1919C3.72207 13.9871 3.99979 13.872 4.28937 13.872H7.07303L10.6366 7.69504L9.52372 5.76304C9.37893 5.51162 9.33993 5.21296 9.41531 4.93279C9.4907 4.65261 9.67427 4.41385 9.92567 4.26904C10.1771 4.12423 10.4757 4.08524 10.7558 4.16062C11.036 4.23601 11.2747 4.41962 11.4195 4.67104L11.8964 5.51404ZM7.68495 17.181L6.63508 19.002C6.49029 19.2535 6.25156 19.4371 5.97142 19.5125C5.69128 19.5879 5.39266 19.5489 5.14127 19.404C4.88987 19.2592 4.70629 19.0205 4.63091 18.7403C4.55553 18.4601 4.59453 18.1615 4.73932 17.91L5.51922 16.56C6.40111 16.287 7.11802 16.497 7.68495 17.181ZM16.7258 13.878H19.5665C19.7099 13.878 19.8518 13.9063 19.9843 13.9612C20.1168 14.016 20.2371 14.0965 20.3385 14.1979C20.4399 14.2993 20.5203 14.4197 20.5752 14.5522C20.6301 14.6846 20.6583 14.8266 20.6583 14.97C20.6583 15.1134 20.6301 15.2554 20.5752 15.3879C20.5203 15.5204 20.4399 15.6408 20.3385 15.7422C20.2371 15.8436 20.1168 15.924 19.9843 15.9789C19.8518 16.0338 19.7099 16.062 19.5665 16.062H17.9887L19.0535 17.91C19.1983 18.1615 19.2373 18.4601 19.1619 18.7403C19.0866 19.0205 18.903 19.2592 18.6516 19.404C18.4002 19.5489 18.1016 19.5879 17.8214 19.5125C17.5413 19.4371 17.3026 19.2535 17.1578 19.002C15.364 15.891 14.0192 13.561 13.1233 12.012C12.2084 10.434 12.8623 8.85004 13.5072 8.31304C14.2241 9.54304 15.297 11.398 16.7258 13.878Z" fill="white"/>
</g>
<defs>
<linearGradient id="paint0_linear_50_36" x1="12" y1="3.92524e-07" x2="12" y2="24" gradientUnits="userSpaceOnUse">
<stop stop-color="#18BFFB"/>
<stop offset="1" stop-color="#2072F3"/>
</linearGradient>
<clipPath id="clip0_50_36">
<rect width="24" height="24" fill="white"/>
</clipPath>
</defs>
</svg>
