<svg width="22" height="24" viewBox="0 0 22 24" fill="none" xmlns="http://www.w3.org/2000/svg">
<g clip-path="url(#clip0_50_31)">
<path d="M10.2717 11.4619L0.0939941 22.0058L0.0954558 22.0122C0.407754 23.1569 1.47879 24 2.75056 24C3.25855 24 3.73585 23.8658 4.14526 23.6306L4.17774 23.6115L15.6324 17.1582L10.2717 11.4619Z" fill="#EA4335"/>
<path d="M20.568 9.66632L20.5583 9.66001L15.6125 6.86108L10.0405 11.7012L15.6322 17.1582L20.552 14.3874C21.4143 13.9326 21.9999 13.0453 21.9999 12.0221C21.9999 11.0052 21.4224 10.1227 20.568 9.66648V9.66632Z" fill="#FBBC04"/>
<path d="M0.0932203 1.99365C0.0310812 2.2186 -0.000274659 2.45087 1.81237e-06 2.68417V21.3158C0.00990831 21.5833 0.0319949 21.7866 0.0938699 22.0057L10.6217 11.7319L0.0932203 1.99365Z" fill="#4285F4"/>
<path d="M10.3466 12.0001L15.6127 6.86104L4.17117 0.383659C3.74056 0.131806 3.25006 -0.00066682 2.75064 2.52396e-06C1.47903 2.52396e-06 0.406047 0.844758 0.0940737 1.99104L0.0932617 1.99379L10.3466 12.0001Z" fill="#34A853"/>
</g>
<defs>
<clipPath id="clip0_50_31">
<rect width="22" height="24" fill="white"/>
</clipPath>
</defs>
</svg>
