<svg width="40" height="40" viewBox="0 0 40 40" fill="none" xmlns="http://www.w3.org/2000/svg">
<path d="M6.00426 25V14.8182H9.90199C10.6378 14.8182 11.2493 14.9342 11.7365 15.1662C12.227 15.3949 12.5933 15.7081 12.8352 16.1058C13.0805 16.5036 13.2031 16.9543 13.2031 17.4581C13.2031 17.8724 13.1236 18.227 12.9645 18.522C12.8054 18.8137 12.5916 19.0507 12.3232 19.233C12.0547 19.4152 11.7547 19.5462 11.4233 19.6257V19.7251C11.7846 19.745 12.1309 19.8561 12.4624 20.0582C12.7971 20.2571 13.0705 20.5388 13.2827 20.9034C13.4948 21.268 13.6009 21.7088 13.6009 22.2259C13.6009 22.7528 13.4732 23.2268 13.218 23.6477C12.9628 24.0653 12.5784 24.3951 12.0646 24.6371C11.5509 24.879 10.9046 25 10.1257 25H6.00426ZM7.84872 23.4588H9.83239C10.5019 23.4588 10.9841 23.3312 11.2791 23.076C11.5774 22.8175 11.7266 22.486 11.7266 22.0817C11.7266 21.7801 11.652 21.5083 11.5028 21.2663C11.3537 21.0211 11.1416 20.8288 10.8665 20.6896C10.5914 20.5471 10.2633 20.4759 9.8821 20.4759H7.84872V23.4588ZM7.84872 19.1484H9.6733C9.99148 19.1484 10.2782 19.0904 10.5334 18.9744C10.7886 18.8551 10.9891 18.6877 11.1349 18.4723C11.2841 18.2536 11.3587 17.995 11.3587 17.6967C11.3587 17.3023 11.2195 16.9775 10.9411 16.7223C10.666 16.4671 10.2566 16.3395 9.71307 16.3395H7.84872V19.1484ZM16.9256 14.8182V25H15.1259V14.8182H16.9256ZM22.1072 25.1491C21.3615 25.1491 20.7152 24.9851 20.1683 24.657C19.6214 24.3288 19.1972 23.8698 18.8956 23.2798C18.5973 22.6899 18.4482 22.0005 18.4482 21.2116C18.4482 20.4228 18.5973 19.7318 18.8956 19.1385C19.1972 18.5452 19.6214 18.0845 20.1683 17.7564C20.7152 17.4283 21.3615 17.2642 22.1072 17.2642C22.853 17.2642 23.4993 17.4283 24.0462 17.7564C24.593 18.0845 25.0156 18.5452 25.3139 19.1385C25.6155 19.7318 25.7663 20.4228 25.7663 21.2116C25.7663 22.0005 25.6155 22.6899 25.3139 23.2798C25.0156 23.8698 24.593 24.3288 24.0462 24.657C23.4993 24.9851 22.853 25.1491 22.1072 25.1491ZM22.1172 23.7074C22.5215 23.7074 22.8596 23.5964 23.1314 23.3743C23.4032 23.1489 23.6054 22.8473 23.7379 22.4695C23.8738 22.0916 23.9418 21.6707 23.9418 21.2067C23.9418 20.7393 23.8738 20.3168 23.7379 19.9389C23.6054 19.5578 23.4032 19.2545 23.1314 19.0291C22.8596 18.8037 22.5215 18.6911 22.1172 18.6911C21.7029 18.6911 21.3582 18.8037 21.0831 19.0291C20.8113 19.2545 20.6075 19.5578 20.4716 19.9389C20.339 20.3168 20.2727 20.7393 20.2727 21.2067C20.2727 21.6707 20.339 22.0916 20.4716 22.4695C20.6075 22.8473 20.8113 23.1489 21.0831 23.3743C21.3582 23.5964 21.7029 23.7074 22.1172 23.7074ZM30.6149 28.0227C29.9686 28.0227 29.4134 27.9349 28.9494 27.7592C28.4854 27.5869 28.1125 27.3549 27.8308 27.0632C27.5491 26.7715 27.3535 26.4484 27.2441 26.0938L28.8649 25.701C28.9378 25.8501 29.0439 25.9976 29.1831 26.1435C29.3223 26.2926 29.5095 26.4152 29.7449 26.5114C29.9835 26.6108 30.2834 26.6605 30.6447 26.6605C31.1551 26.6605 31.5777 26.5362 31.9125 26.2876C32.2472 26.0424 32.4146 25.638 32.4146 25.0746V23.6278H32.3251C32.2323 23.8134 32.0964 24.004 31.9174 24.1996C31.7418 24.3951 31.5081 24.5592 31.2164 24.6918C30.9281 24.8243 30.5652 24.8906 30.1277 24.8906C29.541 24.8906 29.0091 24.7531 28.5318 24.478C28.0578 24.1996 27.68 23.7853 27.3983 23.2351C27.1199 22.6816 26.9806 21.9889 26.9806 21.157C26.9806 20.3184 27.1199 19.6108 27.3983 19.0341C27.68 18.4541 28.0595 18.0149 28.5368 17.7166C29.014 17.415 29.546 17.2642 30.1326 17.2642C30.5801 17.2642 30.948 17.3404 31.2363 17.4929C31.528 17.642 31.76 17.8227 31.9324 18.0348C32.1047 18.2436 32.2356 18.4408 32.3251 18.6264H32.4245V17.3636H34.1994V25.1243C34.1994 25.7772 34.0436 26.3175 33.7321 26.745C33.4205 27.1726 32.9946 27.4924 32.4544 27.7045C31.9141 27.9167 31.301 28.0227 30.6149 28.0227ZM30.6298 23.4787C31.0109 23.4787 31.3358 23.3859 31.6042 23.2003C31.8727 23.0147 32.0765 22.7479 32.2157 22.3999C32.3549 22.0518 32.4245 21.6342 32.4245 21.147C32.4245 20.6664 32.3549 20.2455 32.2157 19.8842C32.0798 19.523 31.8777 19.2429 31.6092 19.044C31.344 18.8419 31.0176 18.7408 30.6298 18.7408C30.2288 18.7408 29.894 18.8452 29.6255 19.054C29.3571 19.2628 29.1549 19.5495 29.019 19.9141C28.8831 20.2753 28.8152 20.6863 28.8152 21.147C28.8152 21.6143 28.8831 22.0237 29.019 22.375C29.1582 22.723 29.362 22.9948 29.6305 23.1903C29.9023 23.3826 30.2354 23.4787 30.6298 23.4787Z" fill="black"/>
<rect x="0.8" y="0.8" width="38.4" height="38.4" rx="3.2" stroke="black" stroke-width="1.6"/>
<line x1="1" y1="7.6" x2="39" y2="7.6" stroke="black" stroke-width="0.8"/>
<circle cx="4.5" cy="4.5" r="1.5" fill="black"/>
<circle cx="8.5" cy="4.5" r="1.5" fill="black"/>
<circle cx="12.5" cy="4.5" r="1.5" fill="black"/>
</svg>
